<svg width="420" height="300" viewBox="0 0 420 300" fill="none" xmlns="http://www.w3.org/2000/svg">
<path d="M244.399 332.293C165.36 332.293 86.3039 332.293 7.26499 332.293C2.44684 332.293 0.0377714 329.844 0.0377714 324.947C0.0377714 317.655 0.108626 310.362 0.00234381 303.07C-0.0507975 299.962 0.78175 298.02 4.34222 298.373C7.35356 298.673 8.62895 297.455 8.9478 294.312C9.60321 287.885 9.26665 281.458 9.70949 275.03C9.79806 273.794 9.37293 272.823 8.5581 271.923C7.74326 271.022 7.12328 269.68 7.97354 268.797C12.2603 264.418 10.2232 258.803 10.9672 253.789C11.782 248.315 11.286 242.664 11.906 237.102C12.2071 234.454 12.4728 231.682 10.6483 229.263C9.92206 228.309 9.78035 226.967 10.7192 226.084C13.1283 223.824 12.7563 220.911 12.8803 218.068C13.3231 208.215 13.7659 198.362 14.2265 188.527C14.2265 188.386 14.3328 188.192 14.2796 188.103C11.0203 183.513 14.7225 179.222 14.8465 174.772C14.8996 173.112 15.5373 171.329 13.4825 170.252C12.8094 169.899 12.4374 168.981 13.022 168.433C14.9528 166.597 14.6162 163.171 16.9899 161.971C21.5069 159.675 22.3217 155.808 22.4811 151.412C22.5343 150.087 22.2686 148.216 24.4474 148.286C26.1833 148.339 26.3427 149.893 26.3782 151.147C26.5553 155.808 28.0787 159.516 32.3477 162.077C34.5796 163.401 34.1545 166.826 36.2447 168.592C36.4396 168.751 36.2447 169.775 35.9436 170.093C32.2591 173.783 34.2962 177.386 36.1916 180.864C36.9179 182.171 37.219 183.336 36.2802 184.395C34.4202 186.479 34.8099 188.951 34.9162 191.335C35.4122 201.329 34.9871 211.499 36.9356 221.211C38.0161 226.614 37.1658 231.523 37.3784 236.643C37.6796 244.36 37.9275 252.058 38.4058 259.757C38.583 262.688 38.4944 265.796 40.6377 268.303C41.0452 268.78 41.4349 269.892 41.1692 270.245C37.0419 276.143 40.1595 282.499 40.0355 288.591C39.8229 299.715 39.8938 298.338 49.8489 298.285C61.9474 298.232 60.3886 299.998 60.4063 287.92C60.4772 248.174 60.4063 208.409 60.5126 168.663C60.5126 165.802 59.2549 161.353 64.0731 161.388C69.0684 161.423 67.1198 165.979 67.3678 168.751C67.6867 172.3 67.5096 175.902 67.5096 179.469C67.5096 181.694 68.5192 182.488 70.7689 182.153C84.5148 180.122 98.2075 177.544 112.219 178.251C114.362 178.357 115.372 177.227 115.372 175.108C115.372 170.958 115.354 166.809 115.372 162.659C115.372 160.77 114.486 159.658 112.609 159.534C110.324 159.375 109.438 158.051 109.137 155.932C108.783 153.425 110.589 153.054 112.237 152.683C114.451 152.189 115.23 150.935 115.337 148.763C115.691 141.612 119.464 136.456 125.239 132.554C129.277 129.834 133.334 127.151 137.337 124.361C139.675 122.736 139.853 120.6 139.675 117.704C139.392 113.025 140.295 108.275 140.791 103.56C140.88 102.678 141.624 102.077 142.616 102.024C143.856 101.954 144.511 102.748 144.653 103.808C145.255 108.628 145.999 113.449 145.503 118.34C145.255 120.759 145.645 122.86 147.735 124.396C153.616 128.704 160.223 132.024 165.52 137.145C166.742 138.328 168.478 138.063 170.055 138.063C220.273 138.063 270.474 138.063 320.693 138.08C322.765 138.08 324.66 137.763 326.29 136.332C330.913 132.218 336.228 129.058 341.418 125.756C344.712 123.654 345.262 120.971 345.191 117.298C345.102 112.866 346.041 108.399 346.608 103.967C346.732 102.942 347.316 102.042 348.556 102.06C349.779 102.077 350.505 102.925 350.469 103.984C350.292 108.999 352.241 113.872 351.302 118.958C350.895 121.147 351.585 123.125 353.693 124.484C358.016 127.292 362.267 130.205 366.554 133.066C372.027 136.721 375.18 141.806 375.623 148.357C375.8 150.917 376.704 152.312 379.219 152.824C380.601 153.107 382.142 153.548 381.982 155.508C381.823 157.345 381.114 159.004 379.077 159.234C375.995 159.587 375.481 161.476 375.605 164.054C375.712 166.05 375.605 168.062 375.605 170.058C375.623 179.063 374.968 178.445 383.63 178.286C395.781 178.056 407.596 180.44 419.5 182.029C422.742 182.453 423.645 181.464 423.592 178.498C423.503 174.207 423.592 169.916 423.645 165.626C423.663 163.525 423.946 161.441 426.656 161.247C429.349 161.053 430.022 162.889 430.164 165.114C430.305 167.25 430.553 169.387 430.553 171.523C430.589 211.711 430.589 251.899 430.607 292.07C430.607 298.25 430.607 298.338 436.753 298.267C451.527 298.073 447.541 300.368 449.224 286.207C449.649 282.676 450.499 278.721 449.401 275.578C447.842 271.181 449.613 267.65 450.074 263.659C451.119 254.583 451.314 245.419 451.81 236.29C451.934 233.871 452.147 231.452 450.659 229.227C450.251 228.609 450.18 227.515 450.411 226.791C454.662 214.06 453.156 200.834 453.546 187.821C453.652 184.378 452.271 181.199 454.325 177.615C455.37 175.796 454.857 172.901 453.51 170.305C451.898 167.233 454.538 163.807 456.593 162.43C461.145 159.393 462.243 155.42 462.367 150.617C462.403 149.222 462.792 147.986 464.546 148.039C466.406 148.092 466.371 149.54 466.424 150.829C466.583 155.261 467.593 158.775 471.703 161.829C474.182 163.683 477.672 167.533 474.182 172.212C473.279 173.413 473.226 176.414 474.129 177.562C476.999 181.235 474.926 184.713 474.926 188.386C474.926 199.793 475.883 211.217 476.467 222.623C476.521 223.859 477.07 224.778 478.009 225.555C478.841 226.243 479.373 227.267 478.841 228.221C475.582 234.048 477.459 240.281 477.601 246.302C477.725 251.281 478.079 256.278 478.239 261.293C478.327 263.818 477.885 266.484 480.489 268.285C481.357 268.886 481.604 270.175 480.861 271.004C478.398 273.688 479.071 276.884 479.195 279.974C479.373 284.548 479.798 289.103 479.886 293.676C479.957 296.819 480.985 298.656 484.439 298.303C487.733 297.967 489.044 299.291 488.991 302.699C488.867 310.133 489.115 317.567 489.133 325C489.133 332.099 488.991 332.222 481.976 332.222C402.778 332.222 323.598 332.222 244.399 332.222V332.293ZM245.551 298.356C257.738 298.356 269.943 298.197 282.13 298.444C286.505 298.532 287.834 297.155 287.745 292.811C287.249 271.658 286.842 250.504 286.806 229.351C286.806 219.498 282.236 212.4 274.672 206.979C266.559 201.152 257.26 197.709 247.836 194.601C246.419 194.142 245.055 194.019 243.62 194.478C234.001 197.515 224.648 201.17 216.358 206.979C209.521 211.764 204.632 218.05 204.472 226.826C204.03 249.127 203.817 271.428 203.357 293.712C203.286 297.296 204.596 298.444 208.104 298.409C220.574 298.267 233.062 298.356 245.551 298.356ZM348.857 244.571V244.518C353.445 244.518 358.033 244.413 362.621 244.554C365.81 244.642 366.943 243.282 366.872 240.21C366.713 233.783 366.288 227.303 366.819 220.928C367.581 211.906 363.418 207.014 355.465 203.536C348.397 200.446 343.313 203.977 337.857 206.926C334.58 208.692 332.933 211.764 332.844 215.402C332.649 224.124 332.703 232.829 332.543 241.552C332.508 244.077 333.624 244.713 335.944 244.624C340.249 244.483 344.553 244.589 348.84 244.589L348.857 244.571ZM141.394 244.518C141.394 244.518 141.394 244.677 141.394 244.766C145.84 244.766 150.286 244.607 154.732 244.819C157.478 244.942 158.629 244.183 158.558 241.27C158.364 232.829 158.381 224.389 158.293 215.967C158.257 213.142 157.354 210.634 155.37 208.568C147.788 200.64 133.883 201.064 126.868 209.416C125.345 211.235 124.495 213.318 124.459 215.702C124.388 224.001 124.388 232.282 124.247 240.581C124.194 243.618 125.664 244.589 128.48 244.536C132.785 244.448 137.089 244.518 141.394 244.518ZM349.46 298.338V298.303C353.906 298.303 358.352 298.197 362.798 298.338C365.739 298.426 366.926 297.331 366.855 294.33C366.678 287.62 366.731 280.892 366.624 274.183C366.589 271.728 366.075 269.362 364.446 267.367C357.165 258.521 342.41 258.521 335.041 267.349C333.606 269.062 332.862 271.057 332.827 273.247C332.738 280.398 332.773 287.532 332.614 294.683C332.561 297.543 333.889 298.408 336.546 298.338C340.851 298.232 345.155 298.303 349.442 298.303L349.46 298.338ZM141.323 298.338C145.769 298.338 150.215 298.232 154.661 298.338C157.425 298.426 158.541 297.314 158.488 294.559C158.364 287.708 158.417 280.84 158.293 273.988C158.24 270.722 157.053 267.95 154.466 265.725C146.442 258.856 136.398 258.803 128.392 265.654C125.859 267.826 124.442 270.475 124.442 273.847C124.424 280.698 124.477 287.567 124.282 294.418C124.194 297.526 125.611 298.408 128.427 298.338C132.732 298.232 137.036 298.303 141.323 298.303V298.338ZM391.282 227.515C391.282 227.515 391.193 227.515 391.14 227.515C391.14 231.664 391.335 235.813 391.087 239.945C390.892 243.353 391.725 244.889 395.551 244.607C400.103 244.271 404.727 244.342 409.297 244.607C412.432 244.783 413.318 243.618 413.212 240.687C412.893 232.264 412.592 223.842 412.609 215.419C412.609 209.063 408.854 205.549 403.965 202.671C402.92 202.053 401.893 202 400.688 202.424C395.321 204.278 391.459 209.31 391.3 215.084C391.193 219.216 391.282 223.365 391.282 227.515ZM99.9435 227.391C99.4475 222.376 100.67 216.761 99.1109 211.305C97.7647 206.644 92.3974 202.229 88.6244 202.512C84.4971 202.812 79.0235 208.339 78.7755 213.124C78.315 222.376 78.2441 231.629 77.9607 240.881C77.8898 243.406 78.9704 244.536 81.5034 244.518C86.6581 244.483 91.7951 244.465 96.9498 244.589C99.2349 244.642 99.9966 243.724 99.9612 241.57C99.8903 237.014 99.9435 232.441 99.9435 227.373V227.391ZM99.9081 283.47C99.4829 279.127 100.546 274.077 99.0578 269.186C97.8532 265.23 92.0254 260.128 88.9255 260.286C85.5776 260.463 79.1829 266.202 78.9349 269.945C78.3681 278.473 77.7481 287.02 78.0315 295.583C78.1024 297.596 78.9349 298.373 80.9189 298.356C86.2153 298.303 91.5117 298.303 96.8081 298.356C98.9692 298.356 99.9435 297.349 99.9258 295.23C99.8903 291.522 99.9258 287.814 99.9258 283.488L99.9081 283.47ZM391.247 283.877C391.247 283.877 391.211 283.877 391.193 283.877C391.193 287.602 391.229 291.31 391.193 295.036C391.158 297.384 392.203 298.391 394.577 298.356C399.448 298.285 404.337 298.232 409.208 298.391C412.255 298.497 413.265 297.243 413.141 294.33C412.822 286.772 412.751 279.18 412.415 271.622C412.202 266.961 406.746 260.957 402.548 260.392C399.501 259.986 393.514 264.807 392.203 268.991C391.654 270.74 391.406 272.629 391.317 274.465C391.176 277.608 391.282 280.751 391.282 283.894L391.247 283.877ZM142.953 178.304C146.932 178.304 148.916 176.485 148.904 172.848C148.869 167.515 146.407 164.16 142.651 164.319C138.559 164.496 136.469 167.568 136.487 173.377C136.487 176.662 138.642 178.298 142.953 178.286V178.304ZM347.493 178.304C354.544 178.304 354.65 178.215 354.632 172.83C354.632 167.639 352.17 164.249 348.415 164.213C344.571 164.178 342.463 167.674 342.126 173.271C341.825 178.145 344.305 178.833 347.493 178.321V178.304ZM123.29 172.106C124.282 173.836 121.785 177.845 125.735 177.951C130.128 178.074 128.215 173.96 128.339 171.665C128.463 169.175 129.295 164.972 125.876 165.008C122.422 165.043 123.786 169.246 123.29 172.124V172.106ZM362.586 171.947C363.383 173.995 361.151 177.898 365.083 177.968C369.423 178.039 367.528 173.995 367.634 171.718C367.758 169.228 368.502 164.955 365.349 164.937C361.7 164.937 363.152 169.298 362.586 171.947ZM162.066 172.371C161.552 169.616 162.951 165.149 159.621 165.025C156.504 164.919 156.822 169.351 156.946 172.071C157.053 174.278 155.441 178.039 159.586 177.986C163.465 177.933 161.269 174.243 162.066 172.371Z" fill="white"/>
<path d="M245.479 130.558C220.662 130.558 195.845 130.47 171.028 130.647C166.936 130.682 165.183 129.252 164.137 125.473C160.506 112.371 163.482 100.559 170.798 89.5759C179.336 76.7567 190.974 67.2041 204.525 60.3354C217.172 53.9258 228.881 46.4568 239.102 36.6217C241.972 33.8495 242.521 30.9008 241.299 27.3516C241.015 26.5571 240.448 25.5329 240.714 24.9326C243.814 17.9403 242.237 10.5066 242.875 3.28478C243.017 1.58968 243.46 0.0358407 245.497 0.000526148C247.8 -0.0347884 248.437 1.71328 248.242 3.53198C247.658 8.63493 249.872 13.6849 248.455 18.8232C248.065 20.2534 248.685 21.5954 249.624 22.7961C250.527 23.9791 251.006 25.427 250.138 26.8043C247.534 30.9714 249.553 34.0614 252.441 36.8866C262.573 46.81 274.654 53.661 287.036 60.4944C305.865 70.8768 322.091 84.4023 327.689 106.703C329.478 113.819 328.45 120.865 326.236 127.822C325.35 130.611 323.544 130.594 321.276 130.594C296.034 130.558 270.774 130.576 245.532 130.576L245.479 130.558Z" fill="white"/>
</svg>
